{"accessors" : [{"bufferView" : 0, "byteOffset" : 0, "componentType" : 5123, "count" : 47424, "type" : "SCALAR", "max" : [47423], "min" : [0]}, {"bufferView" : 1, "byteOffset" : 0, "componentType" : 5126, "count" : 47424, "type" : "VEC3", "max" : [1.1279596090316772, -0.866388201713562, 2.7340757846832275], "min" : [-1.1663950681686401, -1.133612036705017, 0.013369674794375896], "name" : "POSITION"}, {"bufferView" : 1, "byteOffset" : 12, "componentType" : 5126, "count" : 47424, "type" : "VEC3", "max" : [0.9998873472213745, 1.0000044107437134, 1.0000040531158447], "min" : [-0.9999446868896484, -1.0000044107437134, -1.0000044107437134], "name" : "NORMAL"}, {"bufferView" : 0, "byteOffset" : 94848, "componentType" : 5123, "count" : 2688, "type" : "SCALAR", "max" : [2687], "min" : [0]}, {"bufferView" : 2, "byteOffset" : 0, "componentType" : 5126, "count" : 2688, "type" : "VEC3", "max" : [0.9936952590942383, 0.9936952590942383, 1.0000001192092896], "min" : [-0.9936952590942383, -0.9936952590942383, -1.0000001192092896], "name" : "POSITION"}, {"bufferView" : 2, "byteOffset" : 12, "componentType" : 5126, "count" : 2688, "type" : "VEC3", "max" : [1.0000044107437134, 1.0000044107437134, 1.0000044107437134], "min" : [-1.0000044107437134, -1.0000044107437134, -1.0000044107437134], "name" : "NORMAL"}, {"bufferView" : 2, "byteOffset" : 24, "componentType" : 5126, "count" : 2688, "type" : "VEC2", "max" : [1.0000001192092896, -0.01000000536441803], "min" : [0, -1.0000001192092896], "name" : "TEXCOORD_0"}, {"bufferView" : 0, "byteOffset" : 100224, "componentType" : 5123, "count" : 6144, "type" : "SCALAR", "max" : [6143], "min" : [0]}, {"bufferView" : 3, "byteOffset" : 0, "componentType" : 5126, "count" : 6144, "type" : "VEC3", "max" : [1.0283708572387695, 1.0283708572387695, 1.0000001192092896], "min" : [-1.0283708572387695, -1.0283708572387695, -1.0255438089370728], "name" : "POSITION"}, {"bufferView" : 3, "byteOffset" : 12, "componentType" : 5126, "count" : 6144, "type" : "VEC3", "max" : [0.9999933242797852, 0.9999933242797852, 1.0000044107437134], "min" : [-0.9999933242797852, -0.9999933242797852, -0.9999425411224365], "name" : "NORMAL"}, {"bufferView" : 3, "byteOffset" : 24, "componentType" : 5126, "count" : 6144, "type" : "VEC2", "max" : [1.0000001192092896, -0.01000000536441803], "min" : [0, -1.0000001192092896], "name" : "TEXCOORD_0"}], "asset" : {"generator" : "Aspose.3D 23.9.0", "version" : "2.0"}, "buffers" : [{"uri" : "data:application/octet-stream;base64,", "byteLength" : 1533328}], "bufferViews" : [{"buffer" : 0, "byteOffset" : 0, "byteLength" : 112512, "target" : 34963}, {"buffer" : 0, "byteOffset" : 112516, "byteLength" : 1138176, "byteStride" : 24, "target" : 34962}, {"buffer" : 0, "byteOffset" : 1250696, "byteLength" : 86016, "byteStride" : 32, "target" : 34962}, {"buffer" : 0, "byteOffset" : 1336716, "byteLength" : 196608, "byteStride" : 32, "target" : 34962}], "cameras" : [{"perspective" : {"aspectRatio" : 1.5, "yfov" : 0.6911112070083618, "zfar" : 10000, "znear" : 10.000000149011612}, "type" : "perspective", "name" : "Camera.001"}], "materials" : [{"name" : "Material.001", "pbrMetallicRoughness" : {"baseColorFactor" : [0.800000011920929, 0.800000011920929, 0.800000011920929, 1], "metallicFactor" : 0, "roughnessFactor" : 0}, "emissiveFactor" : [0, 0, 0], "alphaMode" : "OPAQUE", "doubleSided" : false}, {"name" : "Material.006", "pbrMetallicRoughness" : {"baseColorFactor" : [0.09888216853141785, 0.09102418273687363, 0.09688203781843185, 1], "metallicFactor" : 0, "roughnessFactor" : 0}, "emissiveFactor" : [0, 0, 0], "alphaMode" : "OPAQUE", "doubleSided" : false}, {"name" : "Material.005", "pbrMetallicRoughness" : {"baseColorFactor" : [0.030508872121572495, 0.029713813215494156, 0.03131648525595665, 1], "metallicFactor" : 0, "roughnessFactor" : 0}, "emissiveFactor" : [0, 0, 0], "alphaMode" : "OPAQUE", "doubleSided" : false}], "meshes" : [{"primitives" : [{"attributes" : {"POSITION" : 1, "NORMAL" : 2}, "indices" : 0, "material" : 0, "mode" : 4}], "name" : "Cube.001"}, {"primitives" : [{"attributes" : {"POSITION" : 4, "NORMAL" : 5, "TEXCOORD_0" : 6}, "indices" : 3, "material" : 1, "mode" : 4}], "name" : "Cylinder.002"}, {"primitives" : [{"attributes" : {"POSITION" : 8, "NORMAL" : 9, "TEXCOORD_0" : 10}, "indices" : 7, "material" : 2, "mode" : 4}], "name" : "Cylinder.003"}], "nodes" : [{"matrix" : [50.4038200378418, 0, 0, 0, 0, -8.211824612614306E-06, -50.40382003784112, 0, 0, 50.40382003784112, -8.211824612614306E-06, 0, -4.711904525756836, 227.62408447265625, -34.334190368652344, 1], "mesh" : 0, "name" : "Cube.001"}, {"camera" : 0, "matrix" : [-51.202771433077665, 2.0290910973525547, -85.87292347935204, 0, -11.764301608568168, 98.86438241137722, 9.350673669827488, 0, 85.08747563509161, 14.890154920849247, -50.38259920210314, 0, 217.89166259765625, 299.7177429199219, 371.7240295410156, 1], "name" : "Camera"}, {"matrix" : [110.56635284423787, 9.666017940516049E-06, 0, 0, -9.666017940516038E-06, 110.56635284423776, 4.8330087806229676E-06, 0, -3.4170534060985915E-14, 3.908653334923679E-07, -8.941956520080558, 0, -4.992140293121338, 299.429443359375, 5.513072967529297, 1], "mesh" : 1, "name" : "Cylinder"}, {"matrix" : [110.56635284423787, 9.666017940516049E-06, 0, 0, -9.666017940516038E-06, 110.56635284423776, 4.8330087806229676E-06, 0, -3.4170534060985915E-14, 3.908653334923679E-07, -8.941956520080558, 0, -3.7523443698883057, 296.6228332519531, 9.220486640930176, 1], "mesh" : 2, "name" : "Cylinder.001"}], "scene" : 0, "scenes" : [{"nodes" : [0, 1, 2, 3]}]}